<?xml version="1.0" encoding="UTF-8"?>
<svg id="Layer_1" data-name="Layer 1" xmlns="http://www.w3.org/2000/svg" xmlns:xlink="http://www.w3.org/1999/xlink" viewBox="0 0 612 396">
  <defs>
    <style>
      .cls-1 {
        fill: url(#linear-gradient);
      }

      .cls-2, .cls-3 {
        fill: #fff;
      }

      .cls-3 {
        font-family: GillSans-Light, 'Gill Sans';
        font-size: 12px;
        font-weight: 300;
        opacity: .03;
      }

      .cls-4 {
        opacity: .5;
      }

      .cls-5 {
        opacity: .25;
      }

      .cls-6 {
        fill: #f2f2f2;
      }
    </style>
    <linearGradient id="linear-gradient" x1="439.99" y1="-324.75" x2="439.99" y2="441.1" gradientUnits="userSpaceOnUse">
      <stop offset="0" stop-color="#3270f6"/>
      <stop offset=".99" stop-color="#2e5af2"/>
    </linearGradient>
  </defs>
  <g>
    <rect class="cls-1" x="-242.51" y="-324.75" width="1365" height="767"/>
    <path class="cls-6" d="M1121.99-324.25V441.75H-242.01V-324.25h1364M1122.99-325.25H-243.01V442.75h1366V-325.25h0Z"/>
  </g>
  <g class="cls-4">
    <path class="cls-6" d="M564.44,270.47c52.92,0,105.31,13.64,151.51,39.43,47.6,26.58,87.49,65.59,115.38,112.8,21.26,35.99,34.83,75.07,40.34,116.15,5.32,39.68,2.94,79.55-7.09,118.49-10.03,38.95-27.19,75.01-51,107.19-24.66,33.31-55.41,60.98-91.41,82.24-47.71,28.18-102.06,43.07-157.16,43.07s-105.32-13.63-151.52-39.43c-47.6-26.58-87.5-65.59-115.39-112.81-21.26-35.99-34.83-75.07-40.34-116.15-5.32-39.68-2.94-79.55,7.09-118.49,10.03-38.95,27.19-75.01,51-107.19,24.66-33.31,55.41-60.99,91.41-82.24,47.71-28.17,102.05-43.07,157.19-43.07h0M564.41,269.97c-53.6,0-107.93,13.91-157.42,43.14-147.49,87.1-196.44,277.27-109.34,424.76,57.87,98,161.22,152.48,267.34,152.48,53.6,0,107.93-13.91,157.42-43.14,147.49-87.1,196.44-277.27,109.34-424.76-57.87-98-161.22-152.49-267.34-152.48h0Z"/>
  </g>
  <g class="cls-5">
    <path class="cls-2" d="M659.03,243.24c52.92,0,105.31,13.64,151.51,39.43,47.6,26.58,87.49,65.59,115.38,112.8,21.26,35.99,34.83,75.07,40.34,116.15,5.32,39.68,2.94,79.55-7.09,118.49-10.03,38.95-27.19,75.01-51,107.19-24.66,33.31-55.41,60.98-91.41,82.24-47.71,28.18-102.06,43.07-157.16,43.07s-105.32-13.63-151.52-39.43c-47.6-26.58-87.5-65.59-115.39-112.81-21.26-35.99-34.83-75.07-40.34-116.15-5.32-39.68-2.94-79.55,7.09-118.49,10.03-38.95,27.19-75.01,51-107.19,24.66-33.31,55.41-60.98,91.41-82.24,47.71-28.17,102.05-43.07,157.19-43.07h0M659,242.74c-53.6,0-107.93,13.91-157.42,43.14-147.49,87.1-196.44,277.27-109.34,424.76,57.87,98,161.22,152.48,267.34,152.48,53.6,0,107.93-13.91,157.42-43.14,147.49-87.1,196.44-277.27,109.34-424.76-57.87-98-161.22-152.49-267.34-152.48h0Z"/>
  </g>
  <text class="cls-3" transform="translate(1 8.18)"><tspan x="0" y="0">X X X X X X X X X X X X X X X X X X X X X X X X X X X X X X X X X X X X X X X X X X X X X X X X X X X X X </tspan><tspan x="0" y="14.4">X X X X X X X X X X X X X X X X X X X X X X X X X X X X X X X X X X X X X X X X X X X X X X X X X X X X X </tspan><tspan x="0" y="28.8">X X X X X X X X X X X X X X X X X X X X X X X X X X X X X X X X X X X X X X X X X X X X X X X X X X X X X </tspan><tspan x="0" y="43.2">X X X X X X X X X X X X X X X X X X X X X X X X X X X X X X X X X X X X X X X X X X X X X X X X X X X X X </tspan><tspan x="0" y="57.6">X X X X X X X X X X X X X X X X X X X X X X X X X X X X X X X X X X X X X X X X X X X X X X X X X X X X X </tspan><tspan x="0" y="72">X X X X X X X X X X X X X X X X X X X X X X X X X X X X X X X X X X X X X X X X X X X X X X X X X X X X X </tspan><tspan x="0" y="86.4">X X X X X X X X X X X X X X X X X X X X X X X X X X X X X X X X X X X X X X X X X X X X X X X X X X X X X </tspan><tspan x="0" y="100.8">X X X X X X X X X X X X X X X X X X X X X X X X X X X X X X X X X X X X X X X X X X X X X X X X X X X X X </tspan><tspan x="0" y="115.2">X X X X X X X X X X X X X X X X X X X X X X X X X X X X X X X X X X X X X X X X X X X X X X X X X X X X X </tspan><tspan x="0" y="129.6">X X X X X X X X X X X X X X X X X X X X X X X X X X X X X X X X X X X X X X X X X X X X X X X X X X X X X </tspan><tspan x="0" y="144">X X X X X X X X X X X X X X X X X X X X X X X X X X X X X X X X X X X X X X X X X X X X X X X X X X X X X </tspan><tspan x="0" y="158.4">X X X X X X X X X X X X X X X X X X X X X X X X X X X X X X X X X X X X X X X X X X X X X X X X X X X X X </tspan><tspan x="0" y="172.8">X X X X X X X X X X X X X X X X X X X X X X X X X X X X X X X X X X X X X X X X X X X X X X X X X X X X X </tspan><tspan x="0" y="187.2">X X X X X X X X X X X X X X X X X X X X X X X X X X X X X X X X X X X X X X X X X X X X X X X X X X X X X </tspan><tspan x="0" y="201.6">X X X X X X X X X X X X X X X X X X X X X X X X X X X X X X X X X X X X X X X X X X X X X X X X X X X X X </tspan><tspan x="0" y="216">X X X X X X X X X X X X X X X X X X X X X X X X X X X X X X X X X X X X X X X X X X X X X X X X X X X X X </tspan><tspan x="0" y="230.4">X X X X X X X X X X X X X X X X X X X X X X X X X X X X X X X X X X X X X X X X X X X X X X X X X X X X X </tspan><tspan x="0" y="244.8">X X X X X X X X X X X X X X X X X X X X X X X X X X X X X X X X X X X X X X X X X X X X X X X X X X X X X </tspan><tspan x="0" y="259.2">X X X X X X X X X X X X X X X X X X X X X X X X X X X X X X X X X X X X X X X X X X X X X X X X X X X X X </tspan><tspan x="0" y="273.6">X X X X X X X X X X X X X X X X X X X X X X X X X X X X X X X X X X X X X X X X X X X X X X X X X X X X X </tspan><tspan x="0" y="288">X X X X X X X X X X X X X X X X X X X X X X X X X X X X X X X X X X X X X X X X X X X X X X X X X X X X X </tspan><tspan x="0" y="302.4">X X X X X X X X X X X X X X X X X X X X X X X X X X X X X X X X X X X X X X X X X X X X X X X X X X X X X </tspan><tspan x="0" y="316.8">X X X X X X X X X X X X X X X X X X X X X X X X X X X X X X X X X X X X X X X X X X X X X X X X X X X X X </tspan><tspan x="0" y="331.2">X X X X X X X X X X X X X X X X X X X X X X X X X X X X X X X X X X X X X X X X X X X X X X X X X X X X X </tspan><tspan x="0" y="345.6">X X X X X X X X X X X X X X X X X X X X X X X X X X X X X X X X X X X X X X X X X X X X X X X X X X X X X </tspan><tspan x="0" y="360">X X X X X X X X X X X X X X X X X X X X X X X X X X X X X X X X X X X X X X X X X X X X X X X X X X X X X </tspan><tspan x="0" y="374.4">X X X X X X X X X X X X X X X X X X X X X X X X X X X X X X X X X X X X X X X X X X X X X X X X X X X X X </tspan></text>
</svg>